# xmcd
#
# Track frame offsets:
# 150
# 11366
# 24471
# 40642
# 50669
# 63740
# 80798
# 95535
# 110119
# 123461
# 138687
# 153929
# 165776
# 179696
# 193198
# 207462
# 223809
# 237347
# 250957
# 265619
# 276917
# 291585
# 304313
# 320584
# 337738
#
# Disc length: 4677 seconds
#
#
# Revision: 0
# Processed by: cddbd v1.5.1PL2 Copyright (c) Steve Scherf et al.
# Submitted via: FreeRIP 2.944 
#
DISCID=82124319
DTITLE=Ataíde e Alexandre - 
DYEAR=1900
DGENRE=Bandinha
TTITLE0=Vai Ter Arrasta Pé
TTITLE1=Garagem da Vizinha
TTITLE2=Muleca
TTITLE3=Quem Tem, Tem Medo
TTITLE4=Genro Bom
TTITLE5=Mexe Que é Bom
TTITLE6=Eu Quero Ser Feliz
TTITLE7=Faz Tempo Que Te Tenteio
TTITLE8=Que Nem Chiclete
TTITLE9=Eu Me Amarrei
TTITLE10=Ajoelhou Tem Que Rezar
TTITLE11=Caramba! Que Baile Bom
TTITLE12=Mocinhas da Cidade
TTITLE13=Casar Não é Comigo
TTITLE14=Padre
TTITLE15=Nóis é Cauboi
TTITLE16=Tira a Roupa
TTITLE17=Just Once
TTITLE18=Fogo de Amor
TTITLE19=Silicone
TTITLE20=Allan Bique
TTITLE21=Piseiro
TTITLE22=Rosto Molhado
TTITLE23=Maria Tchá Tchá Tchá
TTITLE24=Se a Casa Cair
EXTD=
EXTT0=
EXTT1=
EXTT2=
EXTT3=
EXTT4=
EXTT5=
EXTT6=
EXTT7=
EXTT8=
EXTT9=
EXTT10=
EXTT11=
EXTT12=
EXTT13=
EXTT14=
EXTT15=
EXTT16=
EXTT17=
EXTT18=
EXTT19=
EXTT20=
EXTT21=
EXTT22=
EXTT23=
EXTT24=
PLAYORDER=
